<?xml version="1.0" standalone="no"?>
<!DOCTYPE svg PUBLIC "-//W3C//DTD SVG 20010904//EN"
 "http://www.w3.org/TR/2001/REC-SVG-20010904/DTD/svg10.dtd">
<svg version="1.0" xmlns="http://www.w3.org/2000/svg"
 width="176.000000pt" height="176.000000pt" viewBox="0 0 176.000000 176.000000"
 preserveAspectRatio="xMidYMid meet">
<metadata>
Created by potrace 1.11, written by Peter Selinger 2001-2013
</metadata>
<g transform="translate(0.000000,176.000000) scale(0.100000,-0.100000)"
fill="#000000" stroke="none">
<path d="M783 1630 c-156 -17 -336 -103 -447 -213 -370 -372 -271 -982 199
-1220 109 -55 189 -72 335 -72 153 0 230 18 353 82 l67 36 64 -62 64 -61 171
0 171 0 0 55 0 55 -137 0 -137 0 -48 47 -47 46 47 53 c123 138 191 317 192
501 1 451 -393 801 -847 753z m241 -185 c161 -42 314 -167 385 -314 106 -218
70 -467 -94 -656 l-34 -40 -98 98 c-56 55 -107 97 -118 97 -28 0 -65 -40 -65
-69 0 -19 23 -49 87 -113 l87 -87 -63 -30 c-221 -104 -518 -39 -687 153 -53
59 -117 188 -133 264 -16 75 -14 198 4 267 28 110 72 184 159 270 86 85 164
131 267 159 72 20 230 20 303 1z"/>
</g>
</svg>
